<svg width="64" height="48" viewBox="0 0 64 48" fill="none" xmlns="http://www.w3.org/2000/svg">
<path d="M23.35 40H21.166V36.808H18.31V40H16.126V31.84L18.31 31.768V35.092H21.166V31.84H23.35V40ZM27.7986 40.132C27.1746 40.132 26.6146 40.02 26.1186 39.796C25.6306 39.572 25.2466 39.232 24.9666 38.776C24.6866 38.32 24.5466 37.748 24.5466 37.06C24.5466 36.404 24.6946 35.848 24.9906 35.392C25.2866 34.936 25.6826 34.588 26.1786 34.348C26.6826 34.1 27.2386 33.976 27.8466 33.976C28.4866 33.976 29.0546 34.096 29.5506 34.336C30.0466 34.568 30.4346 34.916 30.7146 35.38C31.0026 35.844 31.1466 36.424 31.1466 37.12C31.1466 37.768 30.9946 38.316 30.6906 38.764C30.3946 39.212 29.9946 39.552 29.4906 39.784C28.9866 40.016 28.4226 40.132 27.7986 40.132ZM27.8226 38.356C28.1666 38.356 28.4306 38.252 28.6146 38.044C28.7986 37.836 28.8906 37.528 28.8906 37.12C28.8906 36.728 28.8026 36.404 28.6266 36.148C28.4506 35.884 28.1986 35.752 27.8706 35.752C27.5266 35.752 27.2626 35.868 27.0786 36.1C26.8946 36.332 26.8026 36.652 26.8026 37.06C26.8026 37.452 26.8906 37.768 27.0666 38.008C27.2426 38.24 27.4946 38.356 27.8226 38.356ZM34.1688 40H31.9848V34.18H33.2808L33.6648 34.78C33.9528 34.596 34.3008 34.42 34.7088 34.252C35.1168 34.076 35.5408 33.988 35.9808 33.988C36.3888 33.988 36.7248 34.052 36.9888 34.18C37.2608 34.308 37.4768 34.484 37.6368 34.708C37.9248 34.532 38.2608 34.368 38.6448 34.216C39.0288 34.064 39.4248 33.988 39.8328 33.988C40.3448 33.988 40.7488 34.088 41.0448 34.288C41.3488 34.48 41.5648 34.748 41.6928 35.092C41.8208 35.428 41.8848 35.812 41.8848 36.244V40H39.7008V36.448C39.7008 36.264 39.6728 36.104 39.6168 35.968C39.5608 35.824 39.4008 35.752 39.1368 35.752C39.0328 35.752 38.8648 35.788 38.6328 35.86C38.4008 35.932 38.2008 36.008 38.0328 36.088C38.0328 36.136 38.0328 36.188 38.0328 36.244V40H35.8488V36.448C35.8488 36.264 35.8208 36.104 35.7648 35.968C35.7088 35.824 35.5488 35.752 35.2848 35.752C35.1808 35.752 35.0128 35.788 34.7808 35.86C34.5488 35.932 34.3448 36.008 34.1688 36.088V40ZM48.5915 37.636H45.0515C45.1315 37.876 45.2795 38.068 45.4955 38.212C45.7115 38.356 46.0035 38.428 46.3715 38.428C46.7235 38.428 47.0315 38.384 47.2955 38.296C47.5675 38.208 47.7915 38.12 47.9675 38.032L48.5795 39.508C48.3475 39.676 48.0075 39.824 47.5595 39.952C47.1115 40.072 46.6435 40.132 46.1555 40.132C45.4915 40.132 44.8955 40.016 44.3675 39.784C43.8395 39.552 43.4235 39.212 43.1195 38.764C42.8235 38.308 42.6755 37.752 42.6755 37.096C42.6755 36.44 42.8115 35.88 43.0835 35.416C43.3635 34.952 43.7395 34.596 44.2115 34.348C44.6915 34.1 45.2235 33.976 45.8075 33.976C46.4315 33.976 46.9475 34.116 47.3555 34.396C47.7715 34.668 48.0795 35.036 48.2795 35.5C48.4875 35.956 48.5915 36.456 48.5915 37V37.636ZM44.9915 36.556H46.5035C46.5035 36.444 46.4755 36.324 46.4195 36.196C46.3715 36.068 46.2915 35.96 46.1795 35.872C46.0755 35.776 45.9315 35.728 45.7475 35.728C45.5475 35.728 45.3675 35.812 45.2075 35.98C45.0555 36.14 44.9835 36.332 44.9915 36.556Z" fill="#141414"/>
<path d="M22 14.2474C22 13.9142 22.1659 13.6029 22.4426 13.4171L31.4426 7.37428C31.7797 7.14791 32.2203 7.14791 32.5574 7.37428L41.5574 13.4171C41.8341 13.6029 42 13.9142 42 14.2474V27C42 27.5523 41.5523 28 41 28H35C34.4477 28 34 27.5523 34 27V22C34 21.4477 33.5523 21 33 21H31C30.4477 21 30 21.4477 30 22V27C30 27.5523 29.5523 28 29 28H23C22.4477 28 22 27.5523 22 27V14.2474Z" fill="#141414"/>
<path d="M22 0H42C42 1.65685 40.6569 3 39 3H25C23.3431 3 22 1.65685 22 0Z" fill="#141414"/>
</svg>
