<svg width="64" height="48" viewBox="0 0 64 48" fill="none" xmlns="http://www.w3.org/2000/svg">
<path d="M22.5 14.5207C22.5 14.3575 22.5796 14.2046 22.7133 14.111L31.7133 7.81104L31.4265 7.40142L31.7133 7.81104C31.8854 7.69053 32.1146 7.69053 32.2867 7.81104L41.2867 14.111C41.4204 14.2046 41.5 14.3575 41.5 14.5207V27C41.5 27.2761 41.2761 27.5 41 27.5H35C34.7239 27.5 34.5 27.2761 34.5 27V22C34.5 21.1716 33.8284 20.5 33 20.5H31C30.1716 20.5 29.5 21.1716 29.5 22V27C29.5 27.2761 29.2761 27.5 29 27.5H23C22.7239 27.5 22.5 27.2761 22.5 27V14.5207Z" stroke="#141414"/>
<path d="M23.7404 40H22.7924V36.268H18.9644V40H18.0164V31.84L18.9644 31.78V35.5H22.7924V31.84H23.7404V40ZM28.0254 40.156C27.4494 40.156 26.9534 40.028 26.5374 39.772C26.1214 39.508 25.8014 39.144 25.5774 38.68C25.3614 38.208 25.2534 37.672 25.2534 37.072C25.2534 36.48 25.3694 35.956 25.6014 35.5C25.8334 35.044 26.1614 34.684 26.5854 34.42C27.0094 34.156 27.5174 34.024 28.1094 34.024C28.9814 34.024 29.6654 34.304 30.1614 34.864C30.6574 35.424 30.9054 36.172 30.9054 37.108C30.9054 37.7 30.7854 38.224 30.5454 38.68C30.3134 39.136 29.9814 39.496 29.5494 39.76C29.1254 40.016 28.6174 40.148 28.0254 40.156ZM28.0494 39.352C28.4494 39.352 28.7854 39.256 29.0574 39.064C29.3374 38.864 29.5534 38.596 29.7054 38.26C29.8574 37.916 29.9334 37.536 29.9334 37.12C29.9334 36.456 29.7774 35.908 29.4654 35.476C29.1534 35.044 28.6974 34.828 28.0974 34.828C27.7054 34.828 27.3694 34.928 27.0894 35.128C26.8094 35.32 26.5934 35.588 26.4414 35.932C26.2974 36.268 26.2214 36.644 26.2134 37.06C26.2134 37.716 26.3694 38.264 26.6814 38.704C26.9934 39.136 27.4494 39.352 28.0494 39.352ZM32.995 40H32.047V34.18H32.755L32.911 35.008C33.183 34.728 33.511 34.492 33.895 34.3C34.287 34.1 34.659 34 35.011 34C35.419 34 35.751 34.092 36.007 34.276C36.263 34.452 36.451 34.692 36.571 34.996C36.843 34.724 37.171 34.492 37.555 34.3C37.947 34.1 38.315 34 38.659 34C39.275 34 39.719 34.196 39.991 34.588C40.271 34.98 40.411 35.468 40.411 36.052V39.988H39.463V36.184C39.463 35.784 39.395 35.456 39.259 35.2C39.123 34.944 38.871 34.816 38.503 34.816C38.247 34.816 37.955 34.908 37.627 35.092C37.307 35.276 37.011 35.504 36.739 35.776C36.747 35.864 36.751 35.956 36.751 36.052V39.988H35.803V36.184C35.803 35.784 35.735 35.456 35.599 35.2C35.471 34.944 35.219 34.816 34.843 34.816C34.579 34.816 34.271 34.92 33.919 35.128C33.575 35.328 33.267 35.576 32.995 35.872V40ZM46.7033 37.24H42.4793C42.4953 37.648 42.5753 38.012 42.7193 38.332C42.8633 38.652 43.0833 38.904 43.3793 39.088C43.6753 39.272 44.0633 39.364 44.5433 39.364C44.8793 39.364 45.1833 39.32 45.4553 39.232C45.7273 39.136 46.0193 39.012 46.3313 38.86L46.6313 39.556C46.3433 39.716 46.0313 39.856 45.6953 39.976C45.3673 40.088 44.9873 40.144 44.5553 40.144C43.8753 40.144 43.3073 40.016 42.8513 39.76C42.4033 39.496 42.0673 39.136 41.8433 38.68C41.6193 38.216 41.5073 37.68 41.5073 37.072C41.5073 36.48 41.6113 35.956 41.8193 35.5C42.0353 35.036 42.3433 34.676 42.7433 34.42C43.1513 34.156 43.6433 34.024 44.2193 34.024C44.8033 34.024 45.2753 34.164 45.6353 34.444C46.0033 34.724 46.2713 35.1 46.4393 35.572C46.6153 36.044 46.7033 36.568 46.7033 37.144V37.24ZM42.5033 36.592H45.7673C45.7033 36.064 45.5473 35.64 45.2993 35.32C45.0593 34.992 44.6873 34.828 44.1833 34.828C43.6633 34.828 43.2673 34.992 42.9953 35.32C42.7233 35.648 42.5593 36.072 42.5033 36.592Z" fill="#141414"/>
</svg>
